<svg width="97" height="91" viewBox="0 0 97 91" fill="none" xmlns="http://www.w3.org/2000/svg">
<g clip-path="url(#clip0_29_386)">
<path d="M0 60.3921C0.149316 59.9461 0.285979 59.4976 0.45048 59.0567C2.28277 54.0921 7.86315 52.4534 12.1908 55.6264C13.6688 56.712 15.1012 57.8589 16.564 58.97C17.5586 59.7244 17.9003 59.6963 18.7253 58.7942C20.2033 57.1835 21.7217 55.606 23.1365 53.9392C25.7761 50.8275 28.7953 48.3248 32.9913 47.4048C31.4855 45.7789 30.4277 44.0178 29.8734 41.9561C28.1626 35.5924 31.6981 28.8669 37.9163 26.7924C38.6097 26.5605 38.8273 26.27 38.8248 25.5411C38.7944 19.9139 38.7868 14.2868 38.8147 8.65968C38.8375 4.39091 41.3657 1.15429 45.3593 0.229174C46.03 0.0737141 46.7335 0.0150981 47.4244 0.0125496C51.3066 -0.00783854 55.1914 -0.00529002 59.0736 0.00745258C60.3264 0.0100011 61.116 0.547739 61.3412 1.47795C61.6474 2.75221 60.706 3.86336 59.2407 3.8812C56.8415 3.90924 54.4423 3.88885 52.0431 3.88885C50.3374 3.88885 48.6341 3.86336 46.9284 3.90414C44.6355 3.95511 42.6539 5.84866 42.6362 8.14997C42.5856 14.032 42.621 19.9114 42.6235 25.7934C42.6235 25.8826 42.664 25.9743 42.6994 26.1094C43.4283 26.2445 44.18 26.3286 44.8987 26.5273C48.171 27.4346 50.7423 29.3154 52.486 32.2692C52.7821 32.7712 53.0984 32.9496 53.6755 32.9471C57.621 32.9216 61.5665 32.9318 65.5145 32.9343C67.205 32.9343 67.8529 33.5817 67.8631 35.2968C67.8732 37.3891 67.8656 39.4815 67.8656 41.5866C70.1813 41.1074 72.421 38.5971 72.7627 36.1582C72.8057 35.8447 72.8436 35.5287 72.8765 35.2127C73.0638 33.4084 73.5902 32.9369 75.4301 32.9369C79.7223 32.9369 84.0171 32.942 88.3093 32.9369C91.3007 32.9318 93.2064 31.0102 93.2089 27.9775C93.2165 21.5883 93.2165 15.1966 93.2089 8.80749C93.2038 5.77985 91.3159 3.90159 88.2865 3.89649C84.4043 3.8914 80.5195 3.89904 76.6373 3.8914C75.377 3.8914 74.6936 3.46325 74.3874 2.53813C74.0306 1.46266 74.6278 0.371891 75.7237 0.109393C75.9084 0.0660685 76.0982 0.0201952 76.283 0.0227437C80.7017 0.0431319 85.1256 -0.0741001 89.5367 0.134879C93.6619 0.331115 96.9671 4.06215 96.9823 8.21878C97.0076 14.9902 97.0076 21.7616 96.9823 28.533C96.9671 32.9394 93.381 36.6501 89.0204 36.7291C85.2015 36.8004 81.38 36.7571 77.561 36.7622C77.2497 36.7622 76.9359 36.7622 76.612 36.7622C75.4023 42.2364 71.6567 44.9022 66.6179 46.1408C65.1399 46.5052 64.0719 45.6387 64.0567 44.0841C64.0365 42.0173 64.0517 39.9504 64.0517 37.8861C64.0517 37.5446 64.0517 37.2056 64.0517 36.8208H54.1411C54.5612 40.8347 53.4882 44.3364 50.6942 47.4048C54.5663 47.9324 57.1604 50.2515 59.5241 52.9784C61.245 54.9663 63.0672 56.8649 64.8464 58.8018C65.6638 59.6912 66.0156 59.7167 67.0127 58.9598C68.5489 57.7926 70.0446 56.5668 71.6213 55.4556C74.1774 53.6538 76.9283 53.4729 79.654 54.9637C82.3619 56.4444 83.6552 58.863 83.521 61.9696C83.4324 64.0186 82.6758 65.8459 81.0889 67.166C78.2924 69.4928 75.5389 71.8987 72.5577 73.9655C68.5489 76.7459 64.2491 76.7663 59.9442 74.4829C59.6937 74.3503 59.4507 74.2076 59.2027 74.0751C59.185 74.0649 59.1496 74.0904 59.0053 74.1388V75.1098C59.0053 79.4652 59.0053 83.8206 59.0028 88.176C59.0028 88.5889 58.9977 89.0043 58.937 89.4121C58.8028 90.3244 58.198 90.8877 57.2995 90.9845C56.3783 91.0839 55.5989 90.6099 55.3205 89.723C55.2091 89.3688 55.1686 88.9763 55.1686 88.6017C55.1585 82.4979 55.1686 76.3942 55.156 70.2905C55.156 69.3578 55.4015 68.583 56.2898 68.1676C57.1679 67.7573 57.9322 68.0274 58.6358 68.6391C59.352 69.2609 60.0935 69.8547 60.8351 70.4485C63.7404 72.7651 67.7036 72.8951 70.6646 70.6422C73.2815 68.6518 75.8274 66.5595 78.3633 64.4621C79.9501 63.1521 80.1804 60.912 78.9884 59.3294C77.7711 57.7136 75.5212 57.3593 73.8408 58.5826C72.2565 59.7371 70.7228 60.963 69.1613 62.1506C66.7622 63.9753 64.1706 63.7332 62.1485 61.5211C59.8835 59.0414 57.5855 56.5922 55.3357 54.0972C53.5312 52.0967 51.3117 51.1027 48.6367 51.1053C44.0585 51.1078 39.4803 51.0798 34.9046 51.1155C31.8854 51.1384 29.5722 52.7006 27.583 54.8032C25.4926 57.0127 23.4655 59.2809 21.4231 61.5364C19.4466 63.7205 16.8601 63.9982 14.5039 62.2296C12.9095 61.0343 11.3683 59.7651 9.74353 58.6132C7.39496 56.9465 4.48709 58.129 3.88476 60.9528C3.59119 62.329 4.07457 63.5115 5.10207 64.3627C7.75433 66.5671 10.4066 68.7818 13.1753 70.8308C15.9667 72.8977 19.811 72.6912 22.6176 70.5275C23.4933 69.8522 24.336 69.131 25.194 68.4301C25.8444 67.9 26.5581 67.7828 27.3123 68.1523C28.069 68.5219 28.4081 69.1615 28.4081 70.0025C28.4081 76.2974 28.4131 82.5922 28.403 88.8871C28.403 90.1919 27.6185 91.0176 26.4746 91.0049C25.3382 90.9947 24.6119 90.1868 24.6094 88.8412C24.5967 84.2641 24.6043 79.6844 24.6043 75.1072C24.6043 74.7632 24.6043 74.4217 24.6043 73.9579C24.293 74.1184 24.0754 74.2153 23.8729 74.335C19.4845 76.9269 14.3217 76.6313 10.3028 73.5017C7.83279 71.5775 5.40829 69.5897 2.97114 67.6248C1.43243 66.3837 0.544119 64.7348 0 62.8743C0 62.0461 0 61.2204 0 60.3921ZM33.2824 38.5054C33.2773 43.4852 36.9596 47.2315 41.8516 47.2213C46.6854 47.2111 50.393 43.4572 50.4032 38.5615C50.4133 33.9512 46.5083 30.0239 41.8946 30.0035C37.1393 29.9831 33.2874 33.7855 33.2824 38.5054Z" fill="#333333"/>
<path d="M0 49.5203C0.587142 49.0208 1.09836 48.3608 1.77155 48.0473C5.53989 46.2863 9.30823 46.1869 13.0057 48.2996C14.0231 48.8807 14.4128 49.7446 14.1344 50.6621C13.7903 51.786 12.5274 52.4027 11.4695 51.7987C8.52875 50.1243 5.64872 50.3027 2.72566 51.8165C1.73359 52.3288 1.04775 52.0383 0 50.8558C0 50.4098 0 49.9638 0 49.5203Z" fill="#333333"/>
<path d="M76.4879 50.3615C75.1263 50.7973 73.7344 51.1566 72.4108 51.6893C71.1403 52.199 70.0901 52.0129 69.5611 50.9731C69.0373 49.9435 69.4523 48.8477 70.6772 48.2437C74.5594 46.3297 78.4644 46.0749 82.3163 48.2997C82.83 48.5954 83.2805 49.2095 83.4931 49.7779C83.7487 50.4609 83.4425 51.1541 82.8275 51.6204C82.1543 52.1302 81.4103 52.1607 80.6966 51.7555C79.4084 51.0266 78.0646 50.5501 76.5638 50.6291C76.5385 50.5399 76.5107 50.4507 76.4854 50.364L76.4879 50.3615Z" fill="#333333"/>
<path d="M67.8833 0.0229846C68.893 0.00514493 69.751 0.843608 69.7839 1.87831C69.8193 2.95378 68.974 3.84067 67.9035 3.84831C66.8988 3.85341 66.0206 3.0124 65.975 1.99809C65.927 0.988874 66.8456 0.0382757 67.8833 0.0229846Z" fill="#333333"/>
<path d="M33.2824 38.5056C33.2874 33.7858 37.1393 29.9808 41.8946 30.0038C46.5083 30.0242 50.4133 33.9514 50.4032 38.5617C50.393 43.4574 46.6854 47.2114 41.8516 47.2216C36.9596 47.2318 33.2773 43.4854 33.2824 38.5056Z" fill="white"/>
<path d="M61.3218 25.8396L61.3218 14.605" stroke="#0296F0" stroke-width="3.17241" stroke-linecap="round"/>
<path d="M61.3219 8.98779L61.3219 7.86434" stroke="#0296F0" stroke-width="3.17241" stroke-linecap="round"/>
<path d="M72.4713 7.86426L72.4713 19.0988" stroke="#ADFF44" stroke-width="3.17241" stroke-linecap="round"/>
<path d="M72.4713 24.7161V25.8395" stroke="#ADFF44" stroke-width="3.17241" stroke-linecap="round"/>
</g>
<defs>
<clipPath id="clip0_29_386">
<rect width="97" height="91" fill="white"/>
</clipPath>
</defs>
</svg>
