<svg width="91" height="91" viewBox="0 0 91 91" fill="none" xmlns="http://www.w3.org/2000/svg">
<g clip-path="url(#clip0_30_50)">
<path d="M70.4758 90.9998L70.4039 90.9517C69.4448 90.3831 69.3329 89.5101 69.3489 88.8213C69.3649 87.7561 69.3649 86.6828 69.3489 85.6176C69.3409 83.9998 69.3249 82.3339 69.4128 80.692C69.4768 79.4506 69.8844 78.2252 70.268 77.0478L70.3559 76.7835C70.5557 76.1748 71.0672 75.6542 71.4988 75.2618C71.7945 74.9895 72.1462 74.8453 72.5138 74.8453C72.8815 74.8453 73.2651 74.9975 73.6088 75.2858C74.344 75.9025 74.4879 76.7515 73.9764 77.3842C72.6737 78.9941 72.7056 80.8682 72.7376 82.8545V82.9746C72.7536 84.0719 72.7536 85.1691 72.7456 86.2984V87.5078H87.5473V85.3053C87.5473 84.9769 87.5473 84.6565 87.5313 84.3282C87.5153 83.5993 87.5073 82.8465 87.5553 82.1016C87.6832 80.3476 87.3555 78.978 86.5083 77.7927C86.4044 77.6485 86.3405 77.4963 86.2845 77.3602C85.8689 76.3671 86.0847 75.5261 86.8599 75.0776C87.1477 74.9094 87.4434 74.8213 87.7311 74.8213C88.2106 74.8213 88.6582 75.0536 89.0738 75.5101C90.2327 76.7915 90.5764 78.3854 90.8001 79.787C90.8321 79.9952 90.8801 80.2034 90.928 80.4117L90.992 80.716V91.0078H70.4758V90.9998Z" fill="#333333"/>
<path d="M88.5542 27.1509C85.7809 27.1348 82.9996 27.1268 80.2263 27.1268H71.7065C70.8833 27.1268 70.2439 27.0467 69.8443 26.6383C69.4447 26.2378 69.3648 25.6131 69.3648 24.8042C69.3648 23.9712 69.3648 23.1383 69.3488 22.3133C69.3248 20.5193 69.3089 18.6612 69.4207 16.8431C69.4927 15.6978 69.8603 14.5685 70.22 13.4792C70.3159 13.1909 70.4118 12.9106 70.4997 12.6223C70.6436 12.1497 71.0512 11.7573 71.3788 11.4449C71.7385 11.1005 72.1461 10.9243 72.5617 10.9243C72.9373 10.9243 73.297 11.0605 73.6327 11.3408C74.3919 11.9655 74.5198 12.8705 73.9444 13.5994C72.8334 15.001 72.7136 16.6108 72.7455 18.1406C72.7775 19.4781 72.7695 20.7836 72.7615 22.1612C72.7615 22.6497 72.7615 23.1463 72.7615 23.6429H87.5632C87.5632 23.1863 87.5632 22.7378 87.5632 22.2813C87.5552 21.0158 87.5472 19.7023 87.5792 18.4129C87.6271 16.787 87.5152 15.0811 86.3803 13.5994C85.8289 12.8785 85.9807 11.9495 86.764 11.3488C87.0917 11.0925 87.4433 10.9644 87.795 10.9644C88.2266 10.9644 88.6422 11.1646 89.0098 11.533C90.2166 12.7584 90.5683 14.3442 90.824 15.866C90.856 16.0502 90.904 16.2344 90.9439 16.4266L91.0079 16.6909V25.8694L90.9759 25.9415C90.3605 27.0147 89.3934 27.1589 88.6102 27.1589H88.5702L88.5542 27.1509Z" fill="#333333"/>
<path d="M1.10282 90.9996L1.01491 90.9356C0.327574 90.407 0.0158759 89.6941 0.0318604 88.693C0.0558372 87.7479 0.0318604 86.7788 0.0238681 85.8417C-0.00010868 84.5122 -0.0160932 83.1427 0.0558372 81.7891C0.151744 80.1633 0.583327 78.5054 0.926995 77.1678C1.10282 76.5031 1.59035 75.9184 2.02993 75.4218C2.3656 75.0454 2.7812 74.8452 3.22877 74.8452C3.58842 74.8452 3.95607 74.9813 4.29174 75.2456C5.059 75.8383 5.20286 76.7674 4.6434 77.4962C3.51649 78.9779 3.4046 80.6438 3.44456 82.2216C3.48452 83.5111 3.47653 84.7685 3.46854 86.098C3.46854 86.5706 3.46854 87.0431 3.46854 87.5237H18.2862C18.2862 87.5237 18.2862 86.7308 18.2862 86.4184L18.3022 84.7525C18.3182 83.3589 18.3342 81.9253 18.3022 80.5076C18.2942 80.0111 18.0704 79.4665 17.8946 79.026C17.7747 78.7296 17.6149 78.4413 17.439 78.1449C17.3191 77.9287 17.1913 77.7125 17.0874 77.4882C16.5839 76.455 16.7277 75.6621 17.511 75.1255C17.8227 74.9093 18.1663 74.7971 18.502 74.7971C19.0774 74.7971 19.5889 75.1175 19.9326 75.7102C20.54 76.7433 21.1874 77.9687 21.4032 79.2582C21.651 80.7559 21.6749 82.3017 21.7069 83.7914L21.7229 84.7525C21.7389 85.4173 21.7229 86.09 21.6909 86.7388C21.6669 87.4195 21.643 88.1243 21.6669 88.8131C21.6829 89.4539 21.595 90.3669 20.604 90.9516L20.532 90.9996H1.10282Z" fill="#333333"/>
<path d="M32.9761 74.5571C28.6443 74.5571 25.6152 71.5216 25.6072 67.1807C25.6072 62.9518 25.6072 58.723 25.6072 54.4862V43.7539C25.6072 39.5651 25.6072 35.3763 25.6072 31.1875C25.6072 26.7825 28.6843 23.699 33.072 23.699C37.4358 23.699 54.6591 23.699 54.6591 23.699H63.4107C63.4826 23.699 63.5545 23.699 63.6185 23.699C64.6175 23.763 65.3608 24.4679 65.3768 25.3729C65.3848 25.8294 65.2089 26.2779 64.8813 26.6143C64.5776 26.9267 64.1859 27.0949 63.7783 27.0949C63.7304 27.0949 63.6744 27.0949 63.6185 27.0868C63.5545 27.0868 63.4906 27.0788 63.4347 27.0788C62.8992 27.0788 62.7473 27.3511 62.5076 28.0319C61.7563 30.1544 61.8282 32.1887 62.7074 34.247C62.8512 34.5754 62.9711 34.6635 63.3308 34.6635C64.8733 34.6875 65.4167 35.2402 65.4167 36.7939C65.4167 48.6715 65.4167 60.5491 65.4167 72.4267C65.4167 73.9884 64.8733 74.5411 63.3308 74.5411H46.1873C41.7836 74.5411 37.3799 74.5411 32.9841 74.5411L32.9761 74.5571ZM29.0199 55.215C29.0199 59.2516 29.0199 63.2882 29.0199 67.3248C29.0199 69.215 30.0829 70.6646 31.7133 71.017C32.4007 71.1692 33.12 71.1932 33.8792 71.2173C34.127 71.2253 34.3828 71.2333 34.6385 71.2493V38.1154C34.3508 38.1395 34.0711 38.1475 33.7993 38.1475C32.081 38.1475 30.5145 37.747 29.0119 36.9301V55.215H29.0199ZM61.9401 71.1292V38.1235H38.1391V71.1292H61.9401ZM48.4971 27.1349C43.2062 27.1349 37.9233 27.1349 32.6404 27.1749C32.009 27.1749 31.2178 27.4473 30.5385 27.8958C29.2197 28.7528 28.6683 30.4667 29.1878 32.0605C29.7153 33.6624 31.1059 34.6635 32.8243 34.6635C36.6845 34.6635 40.5368 34.6635 44.3971 34.6635H59.0069C59.0709 34.6635 59.1428 34.6635 59.2067 34.6475C58.3835 32.1166 58.3835 29.6498 59.2067 27.1349H48.4891H48.4971Z" fill="#333333"/>
<path d="M23.4813 11.3168C22.9378 11.3168 22.4983 11.0525 22.1866 10.5399C21.9388 10.1314 21.8589 9.73095 21.9628 9.34652C22.0986 8.8099 22.5782 8.31333 23.4174 7.82478C30.2907 3.87626 37.6836 1.86597 45.3721 1.86597C46.8987 1.86597 48.4651 1.94606 50.0236 2.09823C56.3375 2.73096 62.3237 4.70121 67.8144 7.96894C68.1901 8.1932 68.4778 8.53759 68.6856 8.78587C68.7495 8.86597 68.8135 8.93805 68.8614 8.9861L68.9493 9.0742V9.20235C68.9733 9.87512 68.7895 10.4278 68.4298 10.7962C68.1341 11.1005 67.7425 11.2607 67.2949 11.2607C66.9673 11.2607 66.6316 11.1726 66.2959 11.0044C65.7604 10.7321 65.2249 10.4438 64.6895 10.1634C63.4347 9.49068 62.1399 8.80189 60.8052 8.2813C55.6022 6.24697 50.3913 5.21379 45.3162 5.21379C38.4988 5.21379 31.7133 7.07192 25.1357 10.7481C24.4564 11.1326 23.9209 11.3088 23.4653 11.3088L23.4813 11.3168Z" fill="#333333"/>
<path d="M2.11787 27.1428C0.70324 27.1428 0.0478741 26.47 0.0478741 25.0364C0.0478741 24.2675 0.0318896 23.4986 0.0238973 22.7298C-7.95159e-05 21.1359 -0.0320486 19.4861 0.0638587 17.8602C0.151774 16.3064 0.535403 14.7847 0.951001 13.2389C1.12683 12.5822 1.61436 12.0135 2.13386 11.4449C2.45355 11.1005 2.84517 10.9163 3.26876 10.9163C3.62841 10.9163 3.98806 11.0524 4.31575 11.3087C4.72335 11.6211 4.97911 12.0295 5.02706 12.462C5.07501 12.8465 4.96312 13.2229 4.69938 13.5593C3.51652 15.057 3.40463 16.787 3.45258 18.4369C3.49254 19.7023 3.48455 20.9437 3.46857 22.2572C3.46857 22.7218 3.46857 23.1863 3.46857 23.6588H18.2862V21.4243C18.2862 20.1028 18.2862 18.7732 18.2862 17.4517C18.2942 15.978 17.9586 14.8247 17.2233 13.8316C16.8956 13.3911 16.7597 12.9105 16.8237 12.462C16.8876 12.0375 17.1274 11.6531 17.527 11.3648C17.8387 11.1325 18.1743 11.0204 18.518 11.0204C19.0135 11.0204 19.4931 11.2687 19.9087 11.7412C20.9796 12.9826 21.5391 14.6005 21.611 16.6909C21.6909 19.0375 21.675 21.4163 21.659 23.7229V25.4449C21.643 26.5021 20.9397 27.1428 19.7568 27.1508C18.6459 27.1508 17.535 27.1508 16.424 27.1508C16.424 27.1508 3.55648 27.1508 2.12586 27.1508L2.11787 27.1428Z" fill="#333333"/>
<path d="M45.476 89.2216C38.6026 89.1575 32.073 87.6117 26.0787 84.6323C25.4074 84.2959 24.6561 83.7834 24.768 82.7101C24.8639 81.8291 25.5193 81.2605 26.4384 81.2605C26.7421 81.2605 27.0458 81.3246 27.3575 81.4447C28.0688 81.725 28.7801 82.0133 29.4835 82.3097C31.2897 83.0545 33.1519 83.8314 35.0461 84.344C38.5946 85.3051 42.1592 85.7937 45.6518 85.7937C51.7499 85.7937 57.84 84.304 63.7463 81.3726C63.8342 81.3245 63.9221 81.2845 64.0101 81.2365C64.13 81.1724 64.2498 81.1083 64.3777 81.0442C64.7134 80.884 65.0411 80.804 65.3528 80.804C66.0001 80.804 66.5356 81.1564 66.8313 81.757C67.0471 82.2056 67.0791 82.6781 66.9193 83.0946C66.7594 83.5271 66.4077 83.8635 65.9042 84.0797C65.3448 84.32 64.7853 84.5602 64.2179 84.8005C62.004 85.7456 59.7182 86.7307 57.4005 87.4916C53.9558 88.6209 50.1595 89.1655 45.46 89.2136L45.476 89.2216Z" fill="#333333"/>
<path d="M84.3983 62.976C84.2944 62.976 84.1905 62.9679 84.0786 62.9519C83.2394 62.8158 82.7039 62.2151 82.672 61.3741C82.656 60.9256 82.8318 60.4851 82.9837 60.0927L83.0236 59.9805C84.8459 55.3032 85.749 50.3215 85.717 45.1716C85.6931 40.9588 84.9977 36.794 83.663 32.7895C83.5991 32.5892 83.5351 32.389 83.4712 32.1888C83.1595 31.1236 83.5431 30.2265 84.4542 29.9142C84.6541 29.8421 84.8619 29.8101 85.0617 29.8101C85.8369 29.8101 86.4523 30.3146 86.7001 31.1636C86.82 31.5801 86.9478 31.9885 87.0757 32.405C87.5233 33.8947 87.9948 35.4245 88.2586 36.9863C88.5942 38.9645 88.818 40.9908 89.0258 42.9451C89.1137 43.794 89.2096 44.635 89.3056 45.484C89.1217 51.1625 88.0108 56.6007 86.0207 61.6865C85.6851 62.5435 85.1336 62.984 84.3903 62.984L84.3983 62.976Z" fill="#333333"/>
<path d="M6.24187 62.0707C5.80229 62.0707 5.01106 61.8865 4.60345 60.6451L4.45959 60.2126C3.98805 58.787 3.50851 57.3133 3.12488 55.8316C2.26172 52.4597 1.8701 49.0078 1.89407 44.9552C1.8701 40.6142 2.70129 35.8407 4.29175 31.1474C4.53951 30.4105 4.9711 29.5696 6.09001 29.5696C6.60152 29.5696 7.0411 29.7778 7.32882 30.1462C7.68847 30.6108 7.78438 31.2996 7.59256 32.0444C7.43272 32.6851 7.25689 33.3259 7.08905 33.9666C6.59353 35.8407 6.07403 37.779 5.75434 39.7092C4.72334 45.9563 5.33075 52.4277 7.57658 58.9231C7.60855 59.0192 7.64851 59.1153 7.68847 59.2115C7.73642 59.3396 7.78438 59.4597 7.83233 59.5879C8.19198 60.6932 7.80036 61.6462 6.87326 61.9666C6.65747 62.0387 6.44967 62.0787 6.24986 62.0787L6.24187 62.0707Z" fill="#333333"/>
<path d="M80.0985 76.4153C76.7018 76.4153 73.9205 73.6201 73.8965 70.1762C73.8885 68.5022 74.5279 66.9244 75.7028 65.7311C76.8776 64.5377 78.4441 63.873 80.1065 63.8569C83.5831 63.8569 86.3884 66.6601 86.4044 70.0961C86.4204 73.532 83.6311 76.3592 80.1864 76.4073H80.1065L80.0985 76.4153ZM80.1544 67.421C79.3792 67.421 78.6199 67.7414 78.0685 68.286C77.557 68.7986 77.2772 69.4553 77.2772 70.1361C77.2772 71.6098 78.58 72.8512 80.1145 72.8592C81.649 72.8592 82.9517 71.6258 82.9677 70.1681C82.9837 68.6704 81.7449 67.437 80.1944 67.413L80.1544 67.0926V67.413V67.421Z" fill="#333333"/>
<path d="M10.8455 12.4942C9.16708 12.4942 7.60059 11.8375 6.42573 10.6521C5.25086 9.46677 4.61148 7.89698 4.61148 6.21506C4.61947 2.78714 7.44074 -0.00805664 10.8934 -0.00805664C12.5718 -0.00805664 14.1463 0.648694 15.3131 1.83405C16.488 3.0194 17.1274 4.59721 17.1194 6.27112C17.0954 9.7551 14.3461 12.4862 10.8534 12.4862H10.8375L10.8455 12.4942ZM10.8215 3.41986C9.27098 3.41986 8.05615 4.64526 8.04816 6.21506C8.04017 7.80087 9.247 9.05831 10.7895 9.08233C12.348 9.08233 13.5948 7.8249 13.6108 6.27913C13.6268 4.71734 12.388 3.43588 10.8534 3.41986L10.8215 3.09949V3.41986Z" fill="#333333"/>
<path d="M80.1305 12.4943C78.4441 12.4943 76.8697 11.8375 75.6948 10.6602C74.5279 9.48284 73.8885 7.91304 73.8885 6.23913C73.8965 2.73913 76.6459 0 80.1385 0C83.5992 0 86.4044 2.81121 86.3965 6.26316C86.3965 9.69908 83.5832 12.4943 80.1385 12.4943H80.1305ZM80.0746 3.41991C78.5401 3.41991 77.2773 4.68535 77.2693 6.23913C77.2613 7.76888 78.5401 9.07437 80.0666 9.08238C81.6171 9.08238 82.8639 7.81693 82.8719 6.25515C82.8719 4.66934 81.657 3.42792 80.0906 3.41991L80.0746 3.09954V3.41991Z" fill="#333333"/>
<path d="M10.8054 76.4151C7.5366 76.4151 4.69935 73.6439 4.61143 70.3602C4.56348 68.6542 5.18687 67.0444 6.36174 65.811C7.52062 64.5936 9.07112 63.8968 10.7415 63.8647H10.8854C14.2821 63.8647 17.0154 66.5638 17.1113 70.0078C17.2072 73.4757 14.5218 76.295 11.0052 76.4151H10.8054ZM10.8934 67.2927C9.30289 67.2927 8.0561 68.5261 8.04012 70.1039C8.03212 71.6977 9.2949 73.0032 10.8614 73.0192C11.6127 73.0192 12.34 72.7069 12.8834 72.1622C13.4269 71.6096 13.7466 70.8808 13.7386 70.1439C13.7386 68.5982 12.4758 67.3167 10.9333 67.3007L10.8934 66.9803V67.3007V67.2927Z" fill="#333333"/>
<path d="M43.9255 50.8498C42.7346 50.8498 42.0233 50.2251 42.0074 49.1839C42.0074 48.6953 42.1592 48.2708 42.4629 47.9585C42.7986 47.6221 43.2861 47.4379 43.8775 47.4379C45.9715 47.4299 48.0575 47.4219 50.1515 47.4219C52.2455 47.4219 54.1876 47.4219 56.2096 47.4299C56.817 47.4299 57.3525 47.6461 57.7122 48.0306C58.0159 48.3589 58.1757 48.7834 58.1517 49.2319C58.0958 50.2251 57.3365 50.8418 56.1697 50.8418H46.491C45.6358 50.8418 44.7807 50.8418 43.9255 50.8418V50.8498Z" fill="#0296F0"/>
<path d="M50.0156 60.0204C47.9856 60.0204 45.9555 60.0204 43.9255 60.0124C43.2941 60.0124 42.7826 59.8202 42.4469 59.4678C42.1432 59.1555 41.9914 58.723 42.0074 58.2184C42.0393 57.2012 42.7666 56.5925 43.9575 56.5925H53.5482C54.4034 56.5925 55.2586 56.5925 56.1137 56.5925C57.2886 56.5925 58.0239 57.2333 58.0479 58.2504C58.0558 58.739 57.896 59.1635 57.5923 59.4758C57.2566 59.8202 56.7691 60.0044 56.1777 60.0124C54.1237 60.0204 52.0696 60.0285 50.0156 60.0285V60.0204Z" fill="#ADFF44"/>
</g>
<defs>
<clipPath id="clip0_30_50">
<rect width="91" height="91" fill="white"/>
</clipPath>
</defs>
</svg>
