<svg width="62" height="113" viewBox="0 0 62 113" fill="none" xmlns="http://www.w3.org/2000/svg">
<g clip-path="url(#clip0_29_379)">
<path d="M40.7576 36.5122C40.733 36.7538 40.7269 36.7848 40.7269 36.822C40.8437 38.5134 41.7902 39.2879 43.3945 39.6783C45.6687 40.2359 47.8999 40.9918 50.1249 41.7415C51.8828 42.3363 53.4809 43.2223 53.6592 45.3537C53.7268 46.1343 53.5362 47.0018 53.2228 47.7205C52.9339 48.3834 52.3807 48.9659 51.8336 49.4615C48.2195 52.7143 44.4763 55.8123 40.2905 58.3154C38.6555 59.2943 37.0881 59.4678 35.5208 58.2039C35.3487 58.0614 35.1274 57.9808 34.9553 57.8383C33.0314 56.2398 30.9662 55.5211 28.4154 56.215C27.3582 56.5 26.1289 56.0973 24.9795 56.0787C24.58 56.0725 24.0821 56.1406 23.7871 56.3761C22.0046 57.8011 20.179 59.2014 18.5318 60.7751C16.0916 63.1048 14.6103 65.9549 14.6041 69.437C14.5919 79.0096 14.6041 88.5821 14.6041 98.1547C14.6041 98.4212 14.5796 98.6876 14.6226 98.9416C14.7578 99.7285 15.2065 100.243 16.0178 100.329C16.8415 100.416 17.5176 100.119 17.7819 99.2824C17.9233 98.8301 17.9417 98.322 17.9417 97.8388C17.9479 89.7718 17.9479 81.7048 17.9479 73.6439C17.9479 73.266 17.9356 72.888 17.9663 72.5163C18.0462 71.5745 18.9129 70.639 19.6935 70.6266C20.4065 70.6142 21.353 71.4816 21.5067 72.3242C21.562 72.6154 21.5436 72.9252 21.5436 73.2288C21.5436 81.5932 21.5313 89.9638 21.5559 98.3282C21.5559 100.088 20.9965 101.55 19.7365 102.777C19.466 103.037 19.3185 103.551 19.3124 103.948C19.2755 106.209 19.3001 108.471 19.2878 110.732C19.2816 112.164 18.6363 112.981 17.5114 113.012C16.3498 113.05 15.6798 112.226 15.6491 110.72C15.6368 110.119 15.6491 109.512 15.6491 108.911C15.6491 107.591 15.6245 106.271 15.6613 104.952C15.6736 104.332 15.5077 104.041 14.8562 103.855C12.459 103.167 11.0146 101.29 11.0084 98.7867C10.9838 88.8362 10.9285 78.8856 11.0453 68.9351C11.1006 64.344 13.0245 60.5087 16.6079 57.5843C17.8741 56.5496 19.1218 55.4839 20.4433 54.3748C17.7204 52.1629 15.3848 49.7837 14.3337 46.4194C11.8628 38.5196 15.9072 29.7401 24.6537 27.6955C25.3237 27.5406 25.9937 27.2618 26.6698 27.237C30.4314 27.0945 33.7014 28.4204 36.6394 30.7438C37.1803 31.1714 37.8134 31.5431 38.465 31.7538C42.4663 33.0611 46.4923 34.2817 50.4876 35.6076C52.3069 36.2148 54.1202 36.8901 55.8412 37.739C57.1688 38.3895 58.4596 39.2198 59.5537 40.2111C62.3196 42.708 62.8113 46.2087 60.6662 49.2633C59.1296 51.4566 57.2918 53.4702 55.4294 55.4033C53.61 57.2931 51.6124 59.0031 49.6516 60.7442C47.0271 63.0738 44.3718 65.3787 41.698 67.6587C39.9401 69.1643 39.2517 71.1036 39.2517 73.3589C39.2517 85.6825 39.2517 98.006 39.2517 110.336C39.2517 110.714 39.2824 111.098 39.221 111.463C39.0735 112.424 38.2621 113.087 37.3217 112.994C36.3444 112.895 35.7605 112.337 35.6744 111.321C35.6437 110.986 35.656 110.646 35.656 110.305C35.656 98.1671 35.7052 86.0295 35.6253 73.898C35.6007 69.8707 37.0205 66.7542 40.1307 64.1953C43.9354 61.0602 47.5987 57.7392 51.2128 54.381C53.1797 52.5532 54.9376 50.49 56.7632 48.5074C57.1627 48.0736 57.513 47.5594 57.7958 47.0389C58.6378 45.5086 58.4965 44.0835 57.1688 42.9683C56.1239 42.0946 54.9376 41.252 53.6776 40.7997C49.4365 39.2817 45.1278 37.9434 40.7638 36.506L40.7576 36.5122ZM27.5979 52.3922C33.4125 52.3798 37.9302 47.7391 37.9302 41.7663C37.9302 35.7997 33.2957 31.0227 27.518 31.0536C21.7956 31.0846 17.241 35.8492 17.2594 41.7849C17.2779 47.7824 21.7833 52.3984 27.5979 52.386V52.3922ZM35.3978 53.7862C36.0862 54.2261 36.6271 54.4926 37.0758 54.8705C37.7335 55.4281 38.2806 55.3724 38.9321 54.8519C39.8848 54.0898 40.9051 53.4269 41.8701 52.6772C44.3164 50.7812 46.7566 48.8667 49.1845 46.9398C49.5164 46.6796 49.7746 46.3202 50.2233 45.8431C47.2176 44.7898 44.4271 43.8047 41.5321 42.7886C41.1756 47.5284 38.9321 50.9733 35.404 53.78L35.3978 53.7862Z" fill="#333333"/>
<path d="M0.0122799 21.0721C0.0307195 16.8899 2.07137 14.0088 5.68552 12.8502C9.4349 11.6482 13.6391 12.9059 15.7474 15.8676C17.7757 18.7177 17.8311 23.8416 15.6736 26.6236C14.6656 27.9309 13.4056 29.0957 12.0902 30.0932C10.3815 31.3944 9.2628 32.9 9.13987 35.1305C9.05382 36.7414 8.11955 37.4725 6.85951 37.1503C5.91909 36.9087 5.39664 36.0289 5.50113 34.7277C5.69167 32.3176 6.53989 30.1862 8.31009 28.5071C9.13987 27.714 9.98809 26.9148 10.9285 26.2704C13.7928 24.3125 14.1001 21.6235 13.0552 18.5008C12.9507 18.191 12.7356 17.906 12.5143 17.6582C10.6519 15.5578 6.63209 15.5082 4.7451 17.59C3.63258 18.823 3.58956 20.3657 3.63258 21.9333C3.66946 23.4265 2.23732 24.3745 1.05104 23.6186C0.608493 23.3336 0.307313 22.7202 0.0983312 22.1997C-0.0614784 21.8032 0.0245729 21.3075 0.0184264 21.0659L0.0122799 21.0721Z" fill="#0296F0"/>
<path d="M33.0437 6.98274C33.056 9.12031 32.005 11.1278 29.8783 12.5404C28.6735 13.3459 27.7884 14.2753 27.7577 15.8862C27.7393 16.8403 26.7804 17.5219 25.883 17.4599C24.9488 17.3918 24.2419 16.6792 24.205 15.6693C24.1374 13.7114 24.8811 12.0695 26.2703 10.7312C26.9894 10.0373 27.7762 9.41151 28.5137 8.74236C29.4603 7.87494 29.743 6.23304 29.1653 5.11159C28.6613 4.13884 27.3213 3.64317 26.0305 3.95296C24.8996 4.22558 24.2603 5.02485 24.2296 6.22065C24.2235 6.52424 24.2665 6.82784 24.2296 7.12524C24.1067 8.12277 23.5043 8.6742 22.5393 8.78573C21.6727 8.88486 20.8798 8.22191 20.6892 7.31731C20.2036 5.01245 21.4022 2.21812 23.4613 0.855036C25.1946 -0.291198 28.5322 -0.27261 30.1979 0.886015C32.0726 2.18714 33.0683 4.17601 33.0437 6.99513V6.98274Z" fill="#ADFF44"/>
<path d="M25.8031 107.48C25.8031 106.309 25.7785 105.144 25.8093 103.973C25.84 102.814 26.5653 102.083 27.5979 102.089C28.6182 102.095 29.3681 102.857 29.3804 103.997C29.405 106.37 29.4111 108.743 29.3804 111.117C29.3681 112.257 28.6059 113.006 27.5733 113C26.553 113 25.8338 112.244 25.8031 111.092C25.7785 109.884 25.8031 108.682 25.8031 107.473V107.48Z" fill="#333333"/>
<path d="M5.65481 41.1652C5.64252 39.7401 6.27561 38.8665 7.35125 38.8293C8.44533 38.786 9.2075 39.7153 9.23823 41.1342C9.27511 42.8133 8.52524 43.6869 7.20373 43.5196C6.15882 43.3833 5.6671 42.6336 5.65481 41.1652Z" fill="#0296F0"/>
<path d="M23.9653 22.1998C23.9653 20.9297 24.6906 20.0808 25.7724 20.0994C26.8849 20.118 27.5979 20.9978 27.5917 22.3423C27.5917 23.5691 26.8111 24.4675 25.7601 24.4613C24.6722 24.4613 23.9714 23.5753 23.9653 22.1998Z" fill="#ADFF44"/>
</g>
<defs>
<clipPath id="clip0_29_379">
<rect width="62" height="113" fill="white"/>
</clipPath>
</defs>
</svg>
